<svg width="40" height="40" viewBox="0 0 40 40" fill="none" xmlns="http://www.w3.org/2000/svg">
    <path d="M26.5712 4.57444L25.3 5.80746V34.1929L26.5712 35.4259C27.087 35.9263 26.7328 36.8002 26.0142 36.8002H21.3016C20.5829 36.8002 20.2287 35.9263 20.7446 35.4259L22.1 34.1113V5.88909L20.7446 4.57444C20.2287 4.07411 20.5829 3.2002 21.3016 3.2002H26.0142C26.7328 3.2002 27.087 4.07411 26.5712 4.57444Z" fill="#1E5DFF"/>
    <path fill-rule="evenodd" clip-rule="evenodd" d="M6.39995 6H19.7C20.1418 6 20.5 6.35817 20.5 6.8V19.2002H14.5C14.0581 19.2002 13.7 19.5584 13.7 20.0002V20.4002C13.7 20.842 14.0581 21.2002 14.4999 21.2002H20.5V33.2C20.5 33.6418 20.1418 34 19.7 34H6.39995C4.63264 34 3.19995 32.5673 3.19995 30.8V9.2C3.19995 7.43269 4.63264 6 6.39995 6ZM7.19995 8.7998C6.75812 8.7998 6.39995 9.15798 6.39995 9.5998V12.0998C6.39995 12.5416 6.75812 12.8998 7.19995 12.8998H9.69995C10.1418 12.8998 10.4999 12.5416 10.4999 12.0998V9.5998C10.4999 9.15798 10.1418 8.7998 9.69995 8.7998H7.19995ZM6.39995 15.7004C6.39995 15.2586 6.75812 14.9004 7.19995 14.9004H9.69995C10.1418 14.9004 10.4999 15.2586 10.4999 15.7004V18.2004C10.4999 18.6422 10.1418 19.0004 9.69995 19.0004H7.19995C6.75812 19.0004 6.39995 18.6422 6.39995 18.2004V15.7004ZM7.19995 21C6.75812 21 6.39995 21.3582 6.39995 21.8V24.3C6.39995 24.7418 6.75812 25.1 7.19995 25.1H9.69995C10.1418 25.1 10.4999 24.7418 10.4999 24.3V21.8C10.4999 21.3582 10.1418 21 9.69995 21H7.19995ZM6.39995 27.8996C6.39995 27.4578 6.75812 27.0996 7.19995 27.0996H9.69995C10.1418 27.0996 10.4999 27.4578 10.4999 27.8996V30.3996C10.4999 30.8414 10.1418 31.1996 9.69995 31.1996H7.19995C6.75812 31.1996 6.39995 30.8414 6.39995 30.3996V27.8996Z" fill="#1E5DFF"/>
    <path d="M32.8 21.2002H26.9V33.2C26.9 33.6418 27.2581 34 27.7 34H33.5999C35.3673 34 36.7999 32.5673 36.7999 30.8V9.2C36.7999 7.43269 35.3673 6 33.5999 6H27.7C27.2581 6 26.9 6.35817 26.9 6.8V19.2002H32.8C33.2418 19.2002 33.6 19.5584 33.6 20.0002V20.4002C33.6 20.842 33.2418 21.2002 32.8 21.2002Z" fill="#1E5DFF"/>
</svg>
