<svg width="40" height="40" viewBox="0 0 40 40" fill="none" xmlns="http://www.w3.org/2000/svg">
    <path fill-rule="evenodd" clip-rule="evenodd" d="M6.39995 6C4.63264 6 3.19995 7.43269 3.19995 9.2V29.9026C3.19995 31.6699 4.63264 33.1026 6.39995 33.1026H14.3614C16.0679 33.1026 17.707 33.7685 18.9299 34.9587C19.5313 35.5439 20.4841 35.5603 21.1052 34.9961L21.1836 34.9249C22.4746 33.7523 24.1561 33.1026 25.9002 33.1026H33.5999C35.3673 33.1026 36.7999 31.6699 36.7999 29.9026V9.2C36.7999 7.43269 35.3673 6 33.6 6H25.9002C24.1561 6 22.4746 6.64969 21.1836 7.82234L21.1052 7.89355C20.4841 8.4577 19.5313 8.4413 18.9299 7.8561C17.707 6.66594 16.0679 6 14.3614 6H6.39995ZM9.10497 13.2615C9.04579 13.3384 9.12815 13.4404 9.22125 13.413C9.47219 13.3392 9.73777 13.2996 10.0126 13.2996C11.559 13.2996 12.8126 14.5532 12.8126 16.0996C12.8126 17.646 11.559 18.8996 10.0126 18.8996C8.47495 18.8996 7.22679 17.6602 7.21272 16.1258C7.02055 12.8043 9.03265 11.0996 10.9126 11.0996C11.244 11.0996 11.5126 11.3682 11.5126 11.6996C11.5126 12.031 11.244 12.2996 10.9126 12.2996C10.3442 12.2996 9.62745 12.5826 9.10497 13.2615ZM28.2 19.0996C27.6477 19.0996 27.2 19.5473 27.2 20.0996C27.2 20.6519 27.6477 21.0996 28.1999 21.0996H31.8C32.3522 21.0996 32.8 20.6519 32.8 20.0996C32.8 19.5473 32.3522 19.0996 31.8 19.0996H28.2ZM24.2 23.0996C23.6477 23.0996 23.2 23.5473 23.2 24.0996C23.2 24.6519 23.6477 25.0996 24.2 25.0996H31.8C32.3522 25.0996 32.8 24.6519 32.8 24.0996C32.8 23.5473 32.3522 23.0996 31.8 23.0996H24.2ZM23.2 28.0996C23.2 27.5473 23.6477 27.0996 24.2 27.0996H31.8C32.3522 27.0996 32.8 27.5473 32.8 28.0996C32.8 28.6519 32.3522 29.0996 31.8 29.0996H24.2C23.6477 29.0996 23.2 28.6519 23.2 28.0996ZM15.6339 13.413C15.5408 13.4404 15.4584 13.3384 15.5176 13.2615C16.0401 12.5826 16.7568 12.2996 17.3252 12.2996C17.6566 12.2996 17.9252 12.031 17.9252 11.6996C17.9252 11.3682 17.6566 11.0996 17.3252 11.0996C15.4453 11.0996 13.4332 12.8043 13.6254 16.1258C13.6394 17.6602 14.8876 18.8996 16.4252 18.8996C17.9716 18.8996 19.2252 17.646 19.2252 16.0996C19.2252 14.5532 17.9716 13.2996 16.4252 13.2996C16.1504 13.2996 15.8848 13.3392 15.6339 13.413Z" fill="#0ADF52"/>
</svg>
