<svg width="40" height="40" viewBox="0 0 40 40" fill="none" xmlns="http://www.w3.org/2000/svg">
    <path d="M22.7001 5.90039C21.8164 5.90039 21.1001 6.61674 21.1001 7.50039V27.6004C21.1001 28.484 21.8164 29.2004 22.7001 29.2004H25.1001C25.9838 29.2004 26.7001 28.484 26.7001 27.6004V7.50039C26.7001 6.61674 25.9838 5.90039 25.1001 5.90039H22.7001Z" fill="#FF699F"/>
    <path d="M13.5001 14.6C13.5001 13.7163 14.2164 13 15.1001 13H17.5001C18.3837 13 19.1001 13.7163 19.1001 14.6V27.6C19.1001 28.4837 18.3837 29.2 17.5001 29.2H15.1001C14.2164 29.2 13.5001 28.4837 13.5001 27.6V14.6Z" fill="#FF699F"/>
    <path d="M5.90009 20.8002C5.90009 19.9165 6.61643 19.2002 7.50009 19.2002H9.90009C10.7837 19.2002 11.5001 19.9165 11.5001 20.8002V27.6002C11.5001 28.4839 10.7837 29.2002 9.90008 29.2002H7.50008C6.61643 29.2002 5.90009 28.4839 5.90009 27.6002V20.8002Z" fill="#FF699F"/>
    <path d="M3.6001 33.2002C3.6001 32.0956 4.49553 31.2002 5.6001 31.2002H34.4001C35.5047 31.2002 36.4001 32.0956 36.4001 33.2002C36.4001 34.3048 35.5047 35.2002 34.4001 35.2002H5.6001C4.49553 35.2002 3.6001 34.3048 3.6001 33.2002Z" fill="#FF699F"/>
    <path d="M30.3001 10.0996C29.4164 10.0996 28.7001 10.816 28.7001 11.6996V27.5996C28.7001 28.4833 29.4164 29.1996 30.3001 29.1996H32.7001C33.5838 29.1996 34.3001 28.4833 34.3001 27.5996V11.6996C34.3001 10.816 33.5838 10.0996 32.7001 10.0996H30.3001Z" fill="#FF699F"/>
</svg>
