<svg width="40" height="40" viewBox="0 0 40 40" fill="none" xmlns="http://www.w3.org/2000/svg">
    <path fill-rule="evenodd" clip-rule="evenodd" d="M29.8979 6.3636L5.66413 17.4982C3.86656 18.3241 3.78398 20.848 5.52371 21.7896L11.2143 24.8698C11.9891 25.2892 12.4718 26.0994 12.4718 26.9804V32.1039C12.4718 34.0232 14.613 35.166 16.2076 34.0978L20.8983 30.9554C21.5924 30.4904 22.4785 30.4198 23.2375 30.7692L29.8965 33.834C31.4865 34.5659 33.2999 33.4043 33.2999 31.6539V8.54442C33.2999 6.7947 31.4878 5.63308 29.8979 6.3636ZM16.8924 22.6377C16.4203 23.1029 16.4147 23.8626 16.8799 24.3347C17.3451 24.8068 18.1049 24.8123 18.5769 24.3472L26.8393 16.2051C27.3114 15.7399 27.317 14.9802 26.8518 14.5081C26.3866 14.0361 25.6268 14.0305 25.1548 14.4957L16.8924 22.6377Z" fill="#903AFE"/>
</svg>
