<svg width="40" height="40" viewBox="0 0 40 40" fill="none" xmlns="http://www.w3.org/2000/svg">
    <path d="M5.70003 30.3496C5.70003 28.3338 7.33419 26.6996 9.35003 26.6996C11.3659 26.6996 13 28.3338 13 30.3496C13 32.3654 11.3659 33.9996 9.35003 33.9996C7.33419 33.9996 5.70003 32.3654 5.70003 30.3496Z" fill="#FFC227"/>
    <path d="M8.26442 4.52509C8.63422 3.44216 10.1658 3.44216 10.5356 4.52509L11.297 6.75477C11.4171 7.10636 11.6933 7.38252 12.0449 7.50258L14.2745 8.26399C15.3575 8.6338 15.3575 10.1654 14.2745 10.5352L12.0449 11.2966C11.6933 11.4167 11.4171 11.6928 11.297 12.0444L10.5356 14.2741C10.1658 15.357 8.63423 15.357 8.26442 14.2741L7.50301 12.0444C7.38295 11.6928 7.10679 11.4167 6.7552 11.2966L4.52552 10.5352C3.44258 10.1654 3.44258 8.6338 4.52552 8.26399L6.7552 7.50258C7.10679 7.38252 7.38295 7.10637 7.50301 6.75477L8.26442 4.52509Z" fill="#FFC227"/>
    <path d="M20.2119 7.12882C20.9191 4.89444 24.0809 4.89444 24.7882 7.12882L26.9564 13.9793C27.1921 14.7241 27.7756 15.3075 28.5203 15.5432L35.3708 17.7115C37.6052 18.4187 37.6052 21.5805 35.3708 22.2877L28.5203 24.456C27.7756 24.6917 27.1921 25.2751 26.9564 26.0199L24.7882 32.8704C24.0809 35.1048 20.9191 35.1048 20.2119 32.8704L18.0436 26.0199C17.8079 25.2751 17.2245 24.6917 16.4797 24.456L9.62925 22.2877C7.39487 21.5805 7.39487 18.4187 9.62924 17.7115L16.4797 15.5432C17.2245 15.3075 17.8079 14.7241 18.0436 13.9793L20.2119 7.12882Z" fill="#FFC227"/>
</svg>
